<svg version="1.1" id="Layer_1" xmlns="http://www.w3.org/2000/svg" xmlns:xlink="http://www.w3.org/1999/xlink" x="0px" y="0px"
	 width="100%" viewBox="0 0 500 500" enable-background="new 0 0 500 500" xml:space="preserve">
<path fill="#FC8831" opacity="1.000000" stroke="none" 
	d="
M345.000000,501.000000 
	C230.000031,501.000000 115.500053,501.000000 1.000062,501.000000 
	C1.000041,334.333405 1.000041,167.666794 1.000021,1.000151 
	C167.666550,1.000101 334.333099,1.000101 500.999756,1.000050 
	C500.999817,167.666519 500.999817,334.333038 500.999908,500.999786 
	C449.166656,501.000000 397.333344,501.000000 345.000000,501.000000 
M165.873734,141.850327 
	C165.873734,141.850327 165.804413,141.909103 165.353012,142.091599 
	C165.088440,142.343002 165.010117,142.643066 165.048798,143.918869 
	C165.043701,147.975632 165.038605,152.032410 164.678253,156.361160 
	C164.457504,156.571640 164.296829,156.820862 163.307358,157.126114 
	C158.097488,156.189941 156.487198,158.594879 157.076355,163.497559 
	C157.411423,166.285721 157.201828,169.139328 157.094193,172.894821 
	C157.152786,180.614334 157.211365,188.333862 157.136459,196.970383 
	C157.161880,204.624573 157.187286,212.278778 157.121201,220.819382 
	C157.101349,227.614532 157.101379,227.613724 164.064545,227.922836 
	C164.390213,227.937302 164.714188,227.989700 165.001419,227.999283 
	C165.001419,227.999283 164.979874,227.959579 164.988434,228.731552 
	C165.097336,229.494522 165.206238,230.257477 165.169220,231.916702 
	C165.202393,234.943817 165.235550,237.970917 165.238724,241.713501 
	C167.837860,242.420395 170.436981,243.127289 173.000214,244.642029 
	C173.047531,245.448105 173.094864,246.254181 172.915329,247.402328 
	C172.991318,247.913223 173.067307,248.424118 173.036987,249.785049 
	C173.071701,251.209763 173.106430,252.634491 172.915909,254.402115 
	C172.989258,254.914597 173.062592,255.427078 173.029404,256.720093 
	C173.065079,257.503632 173.100754,258.287170 172.995636,259.993866 
	C173.047684,262.185944 173.099747,264.378052 173.043045,267.400970 
	C173.115463,272.328308 173.187881,277.255615 173.122879,282.792114 
	C173.072739,283.204224 173.022614,283.616333 172.703873,284.551422 
	C172.792816,285.691376 172.881760,286.831299 172.976883,288.624023 
	C173.042908,289.053467 173.108948,289.482910 173.019653,290.845673 
	C173.006271,294.636566 172.826797,298.438538 173.078293,302.211761 
	C173.156189,303.380463 174.421494,305.455383 175.115829,305.444031 
	C181.528381,305.339172 180.466721,309.833191 180.474716,313.689026 
	C180.491074,321.588898 180.478638,321.588928 188.215637,322.411713 
	C188.249146,328.718109 188.249146,328.718109 196.161606,330.121857 
	C196.263992,332.492645 196.366394,334.863464 196.334625,338.062012 
	C196.332962,340.025024 196.331284,341.988037 196.067093,344.808533 
	C196.160187,346.883911 196.253281,348.959290 196.310181,351.673615 
	C196.320007,352.099976 196.329819,352.526367 196.069901,353.860107 
	C196.154007,365.254059 196.238129,376.647980 196.286728,388.768250 
	C196.304855,389.494904 196.322998,390.221558 196.091156,391.702057 
	C196.178284,392.479675 196.265396,393.257294 196.318619,394.753632 
	C196.334641,395.472778 196.350647,396.191925 196.198624,397.493561 
	C196.237381,397.691864 196.276138,397.890198 196.255142,398.326447 
	C196.255142,398.326447 196.217987,398.568878 195.888535,398.596832 
	C195.662369,398.726776 195.588348,398.916199 194.660492,399.267639 
	C190.191910,399.348724 185.723312,399.429840 180.363770,399.313995 
	C177.938156,400.070007 173.502335,400.636932 173.410553,401.612488 
	C172.777328,408.344116 173.050385,415.161041 173.001816,421.979218 
	C173.001816,421.979218 173.043198,421.983856 173.514648,422.699982 
	C199.380432,422.777496 225.246216,422.855042 252.035065,422.952209 
	C274.181976,422.961945 296.329102,423.033569 318.475708,422.955933 
	C329.984833,422.915588 328.959625,425.022491 329.046082,411.709534 
	C329.065613,408.705963 328.169312,407.188171 324.854462,406.872833 
	C323.499237,406.743896 321.347778,404.777405 321.255493,403.522125 
	C320.993896,399.963409 319.387115,398.873596 316.146362,399.076935 
	C314.156219,399.201782 312.149445,399.035828 310.153748,399.104645 
	C307.267395,399.204163 305.876129,398.002838 305.883942,394.989044 
	C305.937439,374.341003 305.864685,353.692108 306.076141,333.046021 
	C306.089874,331.706726 308.087738,329.295654 309.231384,329.253632 
	C313.620544,329.092346 313.033417,325.849670 314.317780,323.272186 
	C315.368134,321.164307 318.684021,320.238129 320.838013,318.583099 
	C321.270844,318.250549 321.025757,316.995728 321.038635,316.165283 
	C321.061890,314.666992 321.108002,313.164734 321.030334,311.670074 
	C320.851440,308.227173 321.688660,305.924225 325.828613,305.651672 
	C326.955566,305.577484 328.831726,303.437286 328.858948,302.211823 
	C329.095337,291.560242 329.071259,280.899597 328.877075,270.246124 
	C328.853455,268.948792 327.337921,266.553986 326.563080,266.574036 
	C320.686432,266.725891 320.926605,262.760895 321.022766,257.951874 
	C321.058319,253.052567 321.093903,248.153259 322.044922,243.182312 
	C323.210266,243.136185 324.375214,243.065063 325.540985,243.047852 
	C336.327698,242.888596 336.379639,242.894104 336.960754,232.141525 
	C337.096344,229.632568 337.664459,227.860458 340.574310,227.917984 
	C344.187683,227.989395 345.076874,225.836624 344.958374,222.721634 
	C344.876129,220.558746 345.001556,218.388702 344.957428,216.223434 
	C344.906342,213.717606 345.635986,211.914230 348.548553,211.984665 
	C352.179474,212.072449 352.965240,209.934326 352.935394,206.814743 
	C352.854126,198.316544 352.906555,189.817062 352.905762,181.318100 
	C352.905029,173.375839 352.904846,173.375839 344.921570,171.840118 
	C344.917816,168.236603 345.106445,164.617142 344.809662,161.037949 
	C344.700470,159.721344 343.319580,157.347107 342.730865,157.410950 
	C335.892212,158.152618 337.202454,153.146393 336.888367,148.456650 
	C337.156128,144.681351 337.478882,141.009277 331.918732,140.832138 
	C330.955048,140.801453 329.326508,139.050034 329.234314,137.986801 
	C328.708374,131.921982 325.082031,132.720856 320.222809,133.911667 
	C316.330109,134.236832 313.226318,133.728653 313.422272,128.594894 
	C313.452881,127.792686 311.726105,126.145996 310.929932,126.216789 
	C306.046539,126.650986 305.666077,123.384987 305.247009,119.297943 
	C302.823547,118.893646 300.400085,118.489357 297.982452,118.018105 
	C297.982452,118.018105 297.915466,118.023529 297.919952,117.166702 
	C296.900299,115.027023 300.219208,110.979553 294.140472,110.413399 
	C290.202881,110.282539 286.265320,110.151688 282.461334,109.219002 
	C281.756378,107.083145 284.601135,103.541161 279.131592,102.821671 
	C277.417145,102.884819 275.702728,102.947968 273.624084,102.786812 
	C273.086212,102.860550 272.548370,102.934288 271.340820,102.900940 
	C270.891357,102.935112 270.441925,102.969276 269.625275,102.782944 
	C269.085907,102.856216 268.546509,102.929489 267.112640,102.873512 
	C264.407074,102.923996 261.701538,102.974487 258.078522,102.810852 
	C248.040924,102.837982 238.003342,102.865112 227.267090,102.617592 
	C222.927017,101.967812 218.923950,101.689857 219.159409,108.058823 
	C219.187683,108.823250 217.737656,109.642326 216.342316,110.400467 
	C215.921951,110.418968 215.501602,110.437462 214.502594,110.313065 
	C214.311035,110.365761 214.119476,110.418449 213.365601,110.447609 
	C212.996414,110.505013 212.627228,110.562416 211.366058,110.446152 
	C203.975754,110.010101 203.975754,110.010101 203.415649,117.339340 
	C199.507401,117.547661 195.081192,116.832100 195.141052,123.083084 
	C195.148224,123.831192 192.647812,125.325859 191.391403,125.242516 
	C184.811325,124.806091 179.684372,126.066368 178.298019,133.827316 
	C177.890305,133.831955 177.482590,133.836594 176.606049,133.538406 
	C175.734467,133.654800 174.862900,133.771194 173.920013,133.877518 
	C173.920013,133.877518 173.860565,133.918137 173.362244,134.053787 
	C173.244171,134.360718 173.126099,134.667633 172.977173,134.997803 
	C172.977173,134.997803 172.998901,135.029724 172.701233,135.699356 
	C172.349335,137.670151 171.997452,139.640961 170.898163,141.592285 
	C169.651978,141.617966 168.405807,141.643646 166.869873,141.452576 
	C166.568039,141.583008 166.266205,141.713425 165.873734,141.850327 
z"/>
<path fill="#F5FCE4" opacity="1.000000" stroke="none" 
	d="
M172.972473,284.028442 
	C173.022614,283.616333 173.072739,283.204224 173.491959,282.514740 
	C174.265686,282.237396 174.670349,282.237427 175.239624,282.354248 
	C175.902924,282.390656 176.401611,282.310211 177.270020,282.216064 
	C178.132767,282.215210 178.625809,282.228058 179.196442,282.324890 
	C179.533691,282.486816 179.713654,282.405396 180.123322,281.864349 
	C180.432678,276.729340 180.432678,271.894653 180.432678,266.570129 
	C177.715546,266.570129 175.433685,266.570129 173.151810,266.570129 
	C173.099747,264.378052 173.047684,262.185944 173.495483,259.513245 
	C176.365387,258.283234 180.544800,260.581909 180.688675,256.133575 
	C180.842422,251.380386 183.188141,250.634796 187.022781,250.959930 
	C188.667236,251.099350 190.335770,250.925385 191.990921,250.975235 
	C194.550644,251.052322 196.078873,250.171051 196.101974,247.306595 
	C196.122360,244.780746 195.432800,243.268005 192.570114,242.991730 
	C191.345535,242.873535 189.183044,241.641266 189.215210,241.004517 
	C189.547684,234.420212 184.923126,235.132156 180.820923,234.517563 
	C180.780334,229.422562 180.743256,224.791733 180.762573,219.716614 
	C180.997864,212.063171 180.997864,212.063171 173.055527,211.514465 
	C172.915604,208.770020 172.845139,206.454590 172.819855,203.700043 
	C172.930908,200.926254 172.996796,198.591599 173.520264,196.248459 
	C178.343704,196.166504 182.709564,196.093018 187.371979,195.981781 
	C187.972855,195.497833 188.277145,195.051620 188.563141,194.218643 
	C189.053146,191.938858 189.561447,190.045853 190.481384,188.252136 
	C192.696075,187.920868 194.499115,187.490311 196.402313,186.930054 
	C196.605057,186.455185 196.529114,186.156281 196.252655,185.478256 
	C196.244675,183.065079 196.258636,181.077316 196.438004,178.718018 
	C196.487106,174.523697 196.370804,170.700928 196.236389,166.582672 
	C196.172638,165.898209 196.127014,165.509201 196.154083,165.185287 
	C196.226776,165.250366 196.416046,165.202896 196.830170,165.173340 
	C204.197968,164.821976 204.197968,164.821976 204.017929,156.564026 
	C204.098251,154.102859 204.140045,152.074295 204.604950,149.999298 
	C207.295670,149.999496 209.563263,150.046158 211.868271,150.553818 
	C211.905685,158.213593 211.905685,165.412354 211.905685,172.545700 
	C214.963684,172.545700 217.178986,172.545700 219.527908,172.545700 
	C219.780289,169.944962 219.997299,167.708664 220.230743,165.303009 
	C222.965210,165.113754 225.405685,164.944855 228.287506,164.837357 
	C235.163345,165.029892 235.163345,165.029892 235.556015,157.119171 
	C238.253403,157.145630 240.505997,157.145630 242.820908,157.145630 
	C243.058517,154.321304 243.235489,152.217606 243.445633,149.719818 
	C246.089996,149.586700 248.536331,149.463562 250.969482,149.760742 
	C250.836319,153.997543 250.625046,157.712997 256.377777,157.351044 
	C257.152252,157.302322 257.994690,159.957153 258.981903,161.222565 
	C260.027313,162.562592 261.255951,164.766953 262.452118,164.798645 
	C266.507294,164.906052 267.111969,167.071014 266.912109,170.313278 
	C266.799866,172.133926 266.918427,173.967575 266.880249,175.794281 
	C266.826538,178.365738 267.346802,180.517105 270.476807,180.694214 
	C273.865326,180.885956 274.105011,178.520081 274.123932,176.039597 
	C274.163177,170.890091 273.975555,165.724091 274.371521,160.602768 
	C274.467285,159.364136 276.351929,157.525650 277.630310,157.322189 
	C278.933899,157.114700 281.776611,158.614655 281.758301,159.309464 
	C281.594635,165.524826 285.761139,165.146530 289.900238,165.518127 
	C290.072327,168.187256 290.186920,170.420898 290.303284,172.689133 
	C292.068085,172.793716 293.220917,172.817123 294.362488,172.942581 
	C295.457550,173.062943 296.540955,173.289154 297.475372,173.443405 
	C297.475372,175.979355 297.475372,178.180450 297.475372,180.499878 
	C295.902649,180.611786 294.757477,180.657227 293.621490,180.784409 
	C292.529663,180.906647 291.447327,181.113541 290.454712,181.268555 
	C289.613708,188.459534 289.613770,188.477646 296.000397,188.456741 
	C299.308899,188.445908 302.617126,188.357681 305.883545,188.718262 
	C305.858948,191.400925 305.876343,193.669754 305.440125,196.024933 
	C300.212585,196.111298 295.438660,196.111298 290.463379,196.111298 
	C290.160583,199.021698 289.927704,201.260117 289.601715,204.393753 
	C284.403717,204.393753 279.308960,204.393753 273.776764,204.308319 
	C266.974335,203.996735 266.974335,203.996735 266.385437,211.794678 
	C263.709961,212.003021 261.469788,212.145630 258.819733,212.314346 
	C258.819733,218.884155 258.819733,224.989624 258.701019,231.256897 
	C258.658966,231.918396 258.735596,232.418076 258.822418,233.255341 
	C258.801056,234.041626 258.769501,234.490341 258.323975,234.973267 
	C251.039169,235.420059 251.034622,235.420044 251.015793,242.117188 
	C251.004623,246.088699 251.194092,250.072968 250.920410,254.025681 
	C250.807205,255.660690 249.717880,257.228119 248.603516,258.847961 
	C244.072647,258.869659 240.010757,258.869659 235.551147,258.869659 
	C235.551147,261.817139 235.551147,264.223480 235.448715,267.111389 
	C235.252457,272.394745 235.158630,277.196594 234.596863,282.054840 
	C229.556976,282.111267 224.985031,282.111267 220.033829,282.111267 
	C220.033829,285.198822 220.033829,287.618469 220.000992,290.473999 
	C219.963440,298.018982 219.963440,298.018982 228.402069,297.860657 
	C230.796021,297.900391 232.742584,297.900391 234.888184,297.900391 
	C235.202362,295.010712 235.459717,292.643890 235.703018,290.406158 
	C243.636795,290.406158 251.026978,290.406158 258.564972,290.406158 
	C258.804840,293.005493 259.011841,295.248596 259.235474,297.671997 
	C261.984528,297.846619 264.437531,298.002441 266.884399,298.579834 
	C266.847656,301.241882 266.816956,303.482391 266.772980,305.744598 
	C266.759674,305.766327 266.711914,305.783936 266.285278,305.778259 
	C262.528381,305.966553 258.873291,304.969604 258.841675,310.687958 
	C258.779877,321.874268 258.514618,321.821289 247.199844,321.130951 
	C244.694794,320.978088 242.974426,320.387329 243.064072,317.500458 
	C243.167389,314.174255 241.110229,313.259491 238.280182,313.212708 
	C235.963760,313.174438 233.606049,313.392181 231.347351,313.014099 
	C230.147858,312.813354 228.199631,311.630524 228.161316,310.816986 
	C227.873840,304.713135 223.737137,305.796997 219.524857,305.977356 
	C216.836227,305.737396 214.575745,305.599304 212.276535,305.458832 
	C212.025223,302.739380 211.817825,300.495056 211.608032,298.224823 
	C208.971924,297.978241 206.735535,297.769012 203.899841,297.503754 
	C203.899841,292.269104 203.899841,287.401672 203.899841,282.627777 
	C201.045013,282.627777 198.844254,282.627777 196.584808,282.627777 
	C196.290375,285.292145 196.044617,287.516083 195.797852,289.749268 
	C193.276794,289.982605 191.188736,290.175873 188.927521,290.385162 
	C188.927521,292.927582 188.927521,295.143768 188.927521,297.566589 
	C191.463684,297.841797 193.677170,298.081970 196.067444,298.341339 
	C196.067444,303.541870 196.067444,308.324371 195.615128,313.118713 
	C193.020111,313.091461 190.877426,313.052338 188.750305,312.582306 
	C188.129333,310.131256 187.446808,306.344910 186.863235,306.360107 
	C179.842621,306.542816 180.914749,301.700470 180.905701,297.472809 
	C180.890030,290.150818 180.896561,290.150818 173.174988,289.912354 
	C173.108948,289.482910 173.042908,289.053467 173.070404,287.910645 
	C173.100098,286.141022 173.036285,285.084717 172.972473,284.028442 
M236.051941,228.000641 
	C243.023911,227.719696 243.023911,227.719696 243.972137,219.943298 
	C246.223602,219.792252 248.475067,219.641220 250.883499,219.479645 
	C250.883499,216.659851 250.883499,214.343475 250.953278,211.149445 
	C251.014847,203.873184 251.014847,203.873184 242.088730,204.088837 
	C239.771988,203.998810 237.455246,203.908783 235.153687,202.956268 
	C235.072769,196.109955 235.072769,196.105743 228.270569,196.099350 
	C222.812332,196.094208 217.354111,196.101074 211.895874,196.102295 
	C204.145950,196.104050 204.145950,196.103912 203.112503,204.015656 
	C201.008911,204.015656 198.905304,204.015656 196.643463,204.015656 
	C196.320465,206.936417 196.072296,209.180557 195.803558,211.610764 
	C193.354965,211.864471 191.125580,212.095459 188.843719,212.331894 
	C188.843719,214.893661 188.843719,217.121841 188.843719,220.059479 
	C194.085236,220.059479 198.951859,220.059479 203.776306,220.059479 
	C204.019821,222.873734 204.201736,224.976303 204.404816,227.323227 
	C207.110748,227.546570 209.559784,227.748703 211.968719,228.859009 
	C211.968719,230.789932 211.968719,232.720856 211.968719,234.856964 
	C220.033707,234.856964 227.501785,234.856964 235.197174,234.856964 
	C235.197174,232.296356 235.197174,230.159149 236.051941,228.000641 
M213.209869,259.441895 
	C210.771576,265.181305 211.692581,266.814606 217.436691,266.876862 
	C219.597336,266.900269 221.758804,266.834900 223.919708,266.846863 
	C226.600296,266.861694 227.820404,265.590912 227.840164,262.877777 
	C227.859787,260.180786 226.776230,258.846588 224.003876,258.938080 
	C220.684143,259.047577 217.361664,259.074188 213.209869,259.441895 
z"/>
<path fill="#BD6C60" opacity="1.000000" stroke="none" 
	d="
M196.067444,313.106903 
	C196.067444,308.324371 196.067444,303.541870 196.067444,298.341339 
	C193.677170,298.081970 191.463684,297.841797 188.927521,297.566589 
	C188.927521,295.143768 188.927521,292.927582 188.927521,290.385162 
	C191.188736,290.175873 193.276794,289.982605 195.797852,289.749268 
	C196.044617,287.516083 196.290375,285.292145 196.584808,282.627777 
	C198.844254,282.627777 201.045013,282.627777 203.899841,282.627777 
	C203.899841,287.401672 203.899841,292.269104 203.899841,297.503754 
	C206.735535,297.769012 208.971924,297.978241 211.608032,298.224823 
	C211.817825,300.495056 212.025223,302.739380 212.276535,305.458832 
	C214.575745,305.599304 216.836227,305.737396 219.503799,306.410278 
	C219.711060,309.906464 220.915756,313.802399 215.612320,313.348724 
	C212.759232,313.104614 211.894196,314.532776 211.927429,317.252380 
	C211.960159,319.932068 212.806747,321.051697 215.636444,321.301971 
	C217.108185,321.432159 219.695648,323.146179 219.640259,324.007202 
	C219.314285,329.075531 222.269226,329.322388 225.943161,329.065582 
	C227.434326,328.961334 228.948959,329.163330 230.435760,329.031952 
	C233.669815,328.746185 235.348160,329.699005 235.410904,333.383362 
	C235.431412,334.587952 237.442505,336.563385 238.771576,336.779022 
	C241.852188,337.278870 245.096725,337.137146 248.221252,336.782959 
	C249.217804,336.669983 250.891632,334.987183 250.811935,334.162109 
	C250.331970,329.192444 253.166321,328.719879 256.948364,329.025574 
	C258.767975,329.172638 260.621368,328.914917 262.438629,329.075806 
	C265.689667,329.363647 266.896637,328.009644 266.806915,324.764709 
	C266.632111,318.441742 266.728088,312.111298 266.711914,305.783936 
	C266.711914,305.783936 266.759674,305.766327 267.233337,305.766052 
	C271.235138,305.750732 274.935822,305.252686 274.537384,310.880402 
	C274.479095,311.703857 277.183441,313.370575 278.667114,313.441437 
	C279.766083,313.493896 281.981812,311.538971 281.933228,310.566559 
	C281.715851,306.216675 283.997345,305.554535 287.494751,305.809357 
	C289.642548,305.965851 291.814270,305.922882 293.968750,305.825562 
	C296.579956,305.707642 298.209015,306.547882 297.925598,309.461639 
	C297.599091,312.818359 299.289703,313.794342 302.379456,313.709930 
	C305.819061,313.616028 305.881653,311.409668 305.839722,308.936127 
	C305.803101,306.777771 305.734558,304.612335 305.861725,302.460724 
	C306.037384,299.488556 305.267365,297.553131 301.778351,297.923370 
	C299.055237,298.212402 297.657288,297.018646 297.961884,294.208221 
	C298.325500,290.853424 296.661255,290.051483 293.581238,289.843506 
	C292.333496,289.759277 290.845062,287.858734 290.160065,286.447815 
	C289.563934,285.219849 289.944641,283.517609 289.949249,281.586243 
	C290.120605,278.809204 290.236389,276.470825 290.760834,274.179565 
	C294.931030,274.130371 298.849091,273.725647 298.109314,279.611328 
	C298.020935,280.314514 299.319458,281.860382 300.012939,281.883575 
	C304.133362,282.021332 308.588470,282.684326 312.230591,281.311768 
	C313.650970,280.776520 313.344330,275.416748 313.643829,272.237427 
	C313.829681,270.264404 313.674072,268.259460 313.675964,266.268829 
	C313.682861,258.949554 313.683533,258.949554 320.886597,258.855530 
	C320.926605,262.760895 320.686432,266.725891 326.563080,266.574036 
	C327.337921,266.553986 328.853455,268.948792 328.877075,270.246124 
	C329.071259,280.899597 329.095337,291.560242 328.858948,302.211823 
	C328.831726,303.437286 326.955566,305.577484 325.828613,305.651672 
	C321.688660,305.924225 320.851440,308.227173 321.030334,311.670074 
	C321.108002,313.164734 321.061890,314.666992 321.038635,316.165283 
	C321.025757,316.995728 321.270844,318.250549 320.838013,318.583099 
	C318.684021,320.238129 315.368134,321.164307 314.317780,323.272186 
	C313.033417,325.849670 313.620544,329.092346 309.231384,329.253632 
	C308.087738,329.295654 306.089874,331.706726 306.076141,333.046021 
	C305.864685,353.692108 305.937439,374.341003 305.883942,394.989044 
	C305.876129,398.002838 307.267395,399.204163 310.153748,399.104645 
	C312.149445,399.035828 314.156219,399.201782 316.146362,399.076935 
	C319.387115,398.873596 320.993896,399.963409 321.255493,403.522125 
	C321.347778,404.777405 323.499237,406.743896 324.854462,406.872833 
	C328.169312,407.188171 329.065613,408.705963 329.046082,411.709534 
	C328.959625,425.022491 329.984833,422.915588 318.475708,422.955933 
	C296.329102,423.033569 274.181976,422.961945 251.543274,422.680511 
	C250.995880,422.241699 250.940277,422.074554 250.927994,421.447815 
	C250.971298,413.954315 250.971298,406.920380 250.971298,400.496948 
	C254.316544,399.435608 256.707886,398.676910 259.298218,397.566284 
	C259.662567,387.424042 259.894684,377.634033 259.943390,367.843140 
	C259.954620,365.583374 259.338043,363.320465 258.641663,360.880310 
	C255.860809,360.547302 253.448654,360.393036 251.022949,359.790894 
	C251.011871,359.010834 251.015686,358.678680 251.016556,358.346497 
	C251.024185,355.381561 251.699554,352.180939 246.848511,352.307800 
	C242.241058,352.428253 243.105865,355.576965 243.096939,358.267700 
	C243.051758,371.886963 243.061111,385.506378 242.606567,399.209106 
	C235.301941,399.427765 235.308670,399.427765 235.307571,392.770508 
	C235.305817,382.126312 235.293762,371.482147 235.286850,360.837952 
	C235.285172,358.245056 235.286591,355.652191 235.286591,352.725098 
	C232.311249,352.725098 230.169724,352.725098 227.960480,352.307983 
	C227.481812,344.596222 227.481812,344.596222 219.462280,345.015747 
	C216.738281,344.868195 214.439499,344.796234 212.101471,344.302917 
	C211.775162,337.065216 211.775162,337.065277 205.045197,336.947235 
	C204.717529,336.941498 204.389908,336.933319 204.040558,336.965210 
	C204.018860,337.004150 204.074219,336.930573 204.075623,336.491943 
	C203.995071,328.803741 203.995071,328.803741 196.197495,329.256836 
	C188.249146,328.718109 188.249146,328.718109 188.428543,321.868683 
	C189.095261,321.205566 189.549072,321.085449 190.434799,321.027039 
	C198.224930,322.092987 195.756927,316.694733 196.067444,313.106903 
M274.262787,386.486755 
	C274.261688,379.013550 274.204773,371.539764 274.288544,364.067505 
	C274.319458,361.310974 273.117798,359.691772 270.482605,360.401917 
	C269.064850,360.783966 267.008118,362.550598 266.977539,363.737335 
	C266.703705,374.358704 266.702881,384.992920 266.971924,395.614502 
	C267.002869,396.835052 268.988617,398.649292 270.393921,399.052643 
	C272.997528,399.799835 274.340942,398.214355 274.261108,395.450073 
	C274.184448,392.795410 274.256866,390.136475 274.262787,386.486755 
M290.040863,380.515167 
	C290.038116,377.696625 289.905640,374.870605 290.067535,372.061554 
	C290.244385,368.993011 288.897522,368.013855 285.954590,368.032898 
	C283.187714,368.050842 282.079407,369.061798 282.109253,371.832397 
	C282.193115,379.623901 282.207764,387.418030 282.092377,395.208832 
	C282.047943,398.211090 283.232574,399.283722 286.208313,399.296234 
	C289.435547,399.309753 290.108185,397.685455 290.049866,394.938965 
	C289.954865,390.464630 290.034882,385.986603 290.040863,380.515167 
z"/>
<path fill="#BC6D61" opacity="1.000000" stroke="none" 
	d="
M274.214233,204.393753 
	C279.308960,204.393753 284.403717,204.393753 289.601715,204.393753 
	C289.927704,201.260117 290.160583,199.021698 290.463379,196.111298 
	C295.438660,196.111298 300.212585,196.111298 305.881805,196.093384 
	C308.983521,195.485931 313.123322,194.807480 313.100952,194.320450 
	C312.842316,188.696732 316.267151,187.840897 321.157501,188.184677 
	C321.157501,184.332886 321.045654,180.878616 321.191132,177.435211 
	C321.319000,174.407654 320.464600,172.579025 317.038300,172.935257 
	C314.218994,173.228363 313.013245,171.965485 313.470032,169.135284 
	C313.958832,166.106934 312.661102,165.030838 309.605011,164.987091 
	C306.258850,164.939178 305.793457,166.680756 305.833893,169.360703 
	C305.929108,175.674286 305.902679,181.989731 305.925476,188.304413 
	C302.617126,188.357681 299.308899,188.445908 296.000397,188.456741 
	C289.613770,188.477646 289.613708,188.459534 290.454712,181.268555 
	C291.447327,181.113541 292.529663,180.906647 293.621490,180.784409 
	C294.757477,180.657227 295.902649,180.611786 297.475372,180.499878 
	C297.475372,178.180450 297.475372,175.979355 297.475372,173.443405 
	C296.540955,173.289154 295.457550,173.062943 294.362488,172.942581 
	C293.220917,172.817123 292.068085,172.793716 290.303284,172.689133 
	C290.186920,170.420898 290.072327,168.187256 289.958862,165.047394 
	C289.985687,160.142380 289.974365,156.142960 290.044128,152.144928 
	C290.250549,140.320099 288.091827,142.401077 300.794464,141.590332 
	C307.632507,141.153915 305.009003,152.486389 312.579590,149.758499 
	C312.949402,150.816269 313.324677,151.872177 313.682831,152.933868 
	C313.733917,153.085342 313.716888,153.265732 313.706390,153.431152 
	C313.525482,156.287827 315.005920,157.129303 317.679749,157.141953 
	C320.764374,157.156525 321.209534,155.415924 321.185181,152.960785 
	C321.122345,146.629532 321.130310,140.297577 321.109985,133.965912 
	C325.082031,132.720856 328.708374,131.921982 329.234314,137.986801 
	C329.326508,139.050034 330.955048,140.801453 331.918732,140.832138 
	C337.478882,141.009277 337.156128,144.681351 336.413788,148.883636 
	C329.070160,149.276093 329.069336,149.276093 329.052399,155.927536 
	C329.048645,157.410736 329.165955,158.904358 329.030609,160.375061 
	C328.731842,163.621582 329.750732,165.330734 333.387390,165.155441 
	C334.505493,165.101547 336.729645,166.429916 336.678986,166.954575 
	C336.004456,173.939407 340.424133,173.316101 344.902954,172.727356 
	C352.904846,173.375839 352.905029,173.375839 352.905762,181.318100 
	C352.906555,189.817062 352.854126,198.316544 352.935394,206.814743 
	C352.965240,209.934326 352.179474,212.072449 348.548553,211.984665 
	C345.635986,211.914230 344.906342,213.717606 344.957428,216.223434 
	C345.001556,218.388702 344.876129,220.558746 344.958374,222.721634 
	C345.076874,225.836624 344.187683,227.989395 340.574310,227.917984 
	C337.664459,227.860458 337.096344,229.632568 336.960754,232.141525 
	C336.379639,242.894104 336.327698,242.888596 325.540985,243.047852 
	C324.375214,243.065063 323.210266,243.136185 321.129822,243.171188 
	C318.114655,243.171356 316.014587,243.182648 313.762726,242.747833 
	C313.610901,240.191223 313.610901,238.080719 313.610901,235.880127 
	C316.413727,235.466553 318.631378,235.139328 321.259430,234.751556 
	C321.259430,232.341217 321.259430,230.209396 321.672974,227.998871 
	C329.305084,227.398682 329.305084,227.398682 328.925781,219.424805 
	C328.992767,214.202667 328.992767,209.436066 328.992767,204.253769 
	C326.057587,204.253769 323.623199,204.253769 320.739655,204.191589 
	C312.944672,203.937668 312.850189,204.035995 313.483002,211.310913 
	C313.511047,211.633713 313.601471,211.951096 313.600739,212.726440 
	C313.325348,215.340332 313.112061,217.498810 312.761841,219.624985 
	C312.423645,219.602859 312.263855,219.689667 311.671997,219.845978 
	C306.806274,219.832809 302.414185,219.826752 298.012207,219.388351 
	C297.843109,211.944321 297.843109,211.943878 290.936005,211.957336 
	C289.279449,211.960571 287.615875,212.067169 285.967926,211.950851 
	C283.212677,211.756363 282.288269,212.973801 281.979614,215.677994 
	C281.812500,217.142288 280.170166,219.630508 279.217896,219.619019 
	C273.122894,219.545502 273.910645,223.053070 274.813782,227.211670 
	C274.600342,228.662796 274.516785,229.798203 274.338562,231.281372 
	C274.309937,232.100449 274.376007,232.571732 274.362488,233.475647 
	C271.925232,234.667252 269.567596,235.426224 267.186646,236.192688 
	C267.186646,243.586639 267.186646,251.077469 267.186646,257.504059 
	C270.130005,258.883820 272.265411,259.884827 274.317139,261.242676 
	C274.305634,262.078156 274.377777,262.556824 274.432312,263.428101 
	C274.327332,264.860504 274.239899,265.900330 273.698853,266.894470 
	C271.918701,266.856384 270.317413,266.405334 269.337799,266.992096 
	C268.211365,267.666809 267.008942,269.252380 266.994629,270.456055 
	C266.980103,271.675934 268.433838,274.005432 269.145050,273.967865 
	C274.509644,273.684204 274.460388,277.009003 274.285492,280.765015 
	C274.138947,283.912750 274.251190,287.072662 274.255219,290.227203 
	C274.264709,297.625244 274.266296,297.625244 266.890503,298.158264 
	C264.437531,298.002441 261.984528,297.846619 259.235474,297.671997 
	C259.011841,295.248596 258.804840,293.005493 258.564972,290.406158 
	C251.026978,290.406158 243.636795,290.406158 235.703018,290.406158 
	C235.459717,292.643890 235.202362,295.010712 234.888184,297.900391 
	C232.742584,297.900391 230.796021,297.900391 228.361359,297.439148 
	C227.568863,289.994934 227.568863,289.994934 220.033829,290.038147 
	C220.033829,287.618469 220.033829,285.198822 220.033829,282.111267 
	C224.985031,282.111267 229.556976,282.111267 235.054199,282.112518 
	C239.633286,282.112091 243.288513,282.048096 246.940445,282.130249 
	C249.446411,282.186646 251.039108,281.650635 251.039276,278.608459 
	C251.039429,275.831238 250.471268,274.231293 247.244492,274.180359 
	C245.896561,274.159088 243.366791,272.874542 243.411880,272.334534 
	C243.953430,265.848267 239.360321,266.839600 235.551147,266.629822 
	C235.551147,264.223480 235.551147,261.817139 235.551147,258.869659 
	C240.010757,258.869659 244.072647,258.869659 249.040131,258.926422 
	C250.939453,258.959381 251.954300,258.792664 252.923370,258.935883 
	C257.767487,259.651917 259.324829,257.596436 258.987610,252.825760 
	C258.567902,246.887299 258.791931,240.903351 258.737976,234.939041 
	C258.769501,234.490341 258.801056,234.041626 258.899597,232.955933 
	C258.917664,231.910980 258.868683,231.503021 258.819733,231.095078 
	C258.819733,224.989624 258.819733,218.884155 258.819733,212.314346 
	C261.469788,212.145630 263.709961,212.003021 266.834351,211.865387 
	C274.254791,211.978973 274.254791,211.978973 274.214233,204.393753 
z"/>
<path fill="#F5FCE3" opacity="1.000000" stroke="none" 
	d="
M228.028214,352.725098 
	C230.169724,352.725098 232.311249,352.725098 235.286591,352.725098 
	C235.286591,355.652191 235.285172,358.245056 235.286850,360.837952 
	C235.293762,371.482147 235.305817,382.126312 235.307571,392.770508 
	C235.308670,399.427765 235.301941,399.427765 242.592682,399.385925 
	C243.023560,399.479340 243.102829,399.825012 243.325012,400.041412 
	C245.819199,401.611908 250.099503,400.320648 249.921997,404.897217 
	C249.699600,410.631287 249.316498,416.359131 248.534653,422.119537 
	C223.058762,422.094208 198.050980,422.039032 173.043198,421.983856 
	C173.043198,421.983856 173.001816,421.979218 173.091095,421.509705 
	C173.222870,417.599823 173.091278,414.143646 173.402298,410.727722 
	C173.511108,409.532776 174.761703,407.421051 175.402618,407.453827 
	C181.593079,407.770447 180.864456,403.275330 181.254730,399.510925 
	C185.723312,399.429840 190.191910,399.348724 195.305664,399.176147 
	C196.132339,398.960724 196.221390,398.788788 196.217987,398.568878 
	C196.217987,398.568878 196.255142,398.326447 196.415405,398.089325 
	C196.609329,397.739624 196.696060,397.609619 196.665955,397.517975 
	C196.596252,397.305786 196.470001,397.112213 196.366669,396.911072 
	C196.350647,396.191925 196.334641,395.472778 196.495224,394.166656 
	C196.561600,392.702515 196.451370,391.825378 196.341141,390.948212 
	C196.322998,390.221558 196.304855,389.494904 196.485397,388.036804 
	C196.569260,375.854492 196.454453,364.403625 196.339645,352.952728 
	C196.329819,352.526367 196.320007,352.099976 196.502930,351.035065 
	C196.573669,348.248016 196.451645,346.099548 196.329620,343.951050 
	C196.331284,341.988037 196.332962,340.025024 196.814941,337.615723 
	C199.554916,337.089813 201.814575,337.010193 204.074219,336.930573 
	C204.074219,336.930573 204.018860,337.004150 204.030792,337.410583 
	C204.058182,345.181152 204.058182,345.181152 212.140732,344.724304 
	C214.439499,344.796234 216.738281,344.868195 219.466400,345.478638 
	C219.896790,362.285187 219.873032,378.553314 219.915329,394.821289 
	C219.926682,399.189362 222.311920,401.265900 225.543228,399.378479 
	C226.890991,398.591309 227.726089,395.895966 227.757751,394.050446 
	C227.994003,380.277863 227.970383,366.500763 228.028214,352.725098 
z"/>
<path fill="#FDC29E" opacity="1.000000" stroke="none" 
	d="
M320.666382,133.938782 
	C321.130310,140.297577 321.122345,146.629532 321.185181,152.960785 
	C321.209534,155.415924 320.764374,157.156525 317.679749,157.141953 
	C315.005920,157.129303 313.525482,156.287827 313.706390,153.431152 
	C313.716888,153.265732 313.733917,153.085342 313.682831,152.933868 
	C313.324677,151.872177 312.949402,150.816269 312.579590,149.758499 
	C305.009003,152.486389 307.632507,141.153915 300.794464,141.590332 
	C288.091827,142.401077 290.250549,140.320099 290.044128,152.144928 
	C289.974365,156.142960 289.985687,160.142380 289.901337,164.611908 
	C285.761139,165.146530 281.594635,165.524826 281.758301,159.309464 
	C281.776611,158.614655 278.933899,157.114700 277.630310,157.322189 
	C276.351929,157.525650 274.467285,159.364136 274.371521,160.602768 
	C273.975555,165.724091 274.163177,170.890091 274.123932,176.039597 
	C274.105011,178.520081 273.865326,180.885956 270.476807,180.694214 
	C267.346802,180.517105 266.826538,178.365738 266.880249,175.794281 
	C266.918427,173.967575 266.799866,172.133926 266.912109,170.313278 
	C267.111969,167.071014 266.507294,164.906052 262.452118,164.798645 
	C261.255951,164.766953 260.027313,162.562592 258.981903,161.222565 
	C257.994690,159.957153 257.152252,157.302322 256.377777,157.351044 
	C250.625046,157.712997 250.836319,153.997543 250.980682,149.266266 
	C250.990280,140.911545 250.975525,133.471634 250.962219,125.589500 
	C251.605759,122.704887 249.460800,118.452225 253.710526,118.323875 
	C258.985413,118.164574 259.176971,115.353134 259.001404,111.517952 
	C258.872070,108.692795 258.988831,105.856377 258.995972,103.024971 
	C261.701538,102.974487 264.407074,102.923996 267.738281,103.078964 
	C268.906769,103.190765 269.449615,103.097115 269.992462,103.003448 
	C270.441925,102.969276 270.891357,102.935112 271.853363,103.094437 
	C272.906708,103.195648 273.447479,103.103378 273.988281,103.011108 
	C275.702728,102.947968 277.417145,102.884819 279.703003,103.230469 
	C280.958832,105.766457 281.643280,107.893646 282.327759,110.020828 
	C286.265320,110.151688 290.202881,110.282539 294.697876,110.851059 
	C296.141998,113.533661 297.028748,115.778587 297.915466,118.023529 
	C297.915466,118.023529 297.982452,118.018105 298.129272,118.342743 
	C300.622375,119.096474 302.968658,119.525558 305.314941,119.954643 
	C305.666077,123.384987 306.046539,126.650986 310.929932,126.216789 
	C311.726105,126.145996 313.452881,127.792686 313.422272,128.594894 
	C313.226318,133.728653 316.330109,134.236832 320.666382,133.938782 
z"/>
<path fill="#F5FCE3" opacity="1.000000" stroke="none" 
	d="
M258.537231,102.917908 
	C258.988831,105.856377 258.872070,108.692795 259.001404,111.517952 
	C259.176971,115.353134 258.985413,118.164574 253.710526,118.323875 
	C249.460800,118.452225 251.605759,122.704887 250.521210,125.574371 
	C247.966217,126.001457 245.853622,126.001457 243.071686,126.001457 
	C243.071686,131.384247 243.071686,136.260345 243.071686,141.271057 
	C239.979187,141.578049 237.536392,141.820557 234.667999,142.009781 
	C232.216507,141.214966 228.445145,140.487198 228.439163,139.729691 
	C228.388397,133.308060 224.283447,133.656647 219.990158,134.000214 
	C220.004700,133.997910 219.994980,134.027634 219.995972,133.585449 
	C219.341583,130.700500 221.498489,126.362358 217.332031,126.281319 
	C211.603928,126.169907 211.778015,122.958138 211.964828,119.087074 
	C212.100952,116.266510 212.162979,113.442368 212.258057,110.619812 
	C212.627228,110.562416 212.996414,110.505013 213.770874,110.572281 
	C214.477859,110.616623 214.779541,110.536293 215.081238,110.455963 
	C215.501602,110.437462 215.921951,110.418968 217.018875,110.576981 
	C227.679886,111.104782 227.679886,111.104782 227.965744,102.892242 
	C238.003342,102.865112 248.040924,102.837982 258.537231,102.917908 
z"/>
<path fill="#FBC2A0" opacity="1.000000" stroke="none" 
	d="
M173.062683,196.256927 
	C172.996796,198.591599 172.930908,200.926254 172.392746,203.685303 
	C169.660400,203.367813 165.392151,202.426407 165.443054,201.914169 
	C166.146927,194.830139 161.202332,196.230133 157.269958,196.053375 
	C157.211365,188.333862 157.152786,180.614334 157.506073,172.607162 
	C164.369995,173.682388 165.010132,173.214783 165.044083,166.967361 
	C165.062149,163.641632 165.010239,160.315552 165.433289,157.008057 
	C168.191605,156.364975 172.551147,155.541779 172.513550,155.066299 
	C171.985641,148.390396 176.664322,149.179855 180.726974,149.372437 
	C180.804184,153.651596 180.534409,157.496124 180.982681,161.255051 
	C181.144699,162.613449 183.045868,164.839554 184.122528,164.821548 
	C188.089249,164.755188 188.978561,166.620987 188.715637,170.025848 
	C188.550293,172.167160 188.625336,174.333054 188.692566,176.484787 
	C188.777344,179.198380 188.063461,180.848206 184.826050,180.856155 
	C181.766602,180.863678 180.556473,179.655136 180.826874,176.726868 
	C181.123276,173.516922 179.338242,172.899078 176.556717,172.898300 
	C173.635941,172.897507 172.886856,174.267593 172.935120,176.877243 
	C173.054596,183.335724 173.029633,189.796860 173.062683,196.256927 
z"/>
<path fill="#FBC2A1" opacity="1.000000" stroke="none" 
	d="
M313.914551,243.193954 
	C316.014587,243.182648 318.114655,243.171356 320.672089,243.207001 
	C321.093903,248.153259 321.058319,253.052567 320.954681,258.403687 
	C313.683533,258.949554 313.682861,258.949554 313.675964,266.268829 
	C313.674072,268.259460 313.829681,270.264404 313.643829,272.237427 
	C313.344330,275.416748 313.650970,280.776520 312.230591,281.311768 
	C308.588470,282.684326 304.133362,282.021332 300.012939,281.883575 
	C299.319458,281.860382 298.020935,280.314514 298.109314,279.611328 
	C298.849091,273.725647 294.931030,274.130371 290.677795,273.749878 
	C289.533081,271.005951 291.263214,267.285492 287.295746,266.989197 
	C282.495941,266.630737 281.788727,263.820221 282.338867,259.767456 
	C288.629852,259.340515 294.575867,259.023407 300.522858,259.004669 
	C303.832672,258.994263 305.949371,258.287842 306.010742,254.386276 
	C306.027893,253.294205 307.504425,251.262039 308.237488,251.295212 
	C314.627197,251.584503 313.827240,247.129807 313.914551,243.193954 
z"/>
<path fill="#BD6F61" opacity="1.000000" stroke="none" 
	d="
M157.203217,196.511871 
	C161.202332,196.230133 166.146927,194.830139 165.443054,201.914169 
	C165.392151,202.426407 169.660400,203.367813 172.347565,204.124420 
	C172.845139,206.454590 172.915604,208.770020 173.002731,211.956177 
	C172.150665,217.781540 173.481033,220.795273 179.257385,219.951645 
	C179.720245,219.884048 180.222321,220.084839 180.706177,220.160919 
	C180.743256,224.791733 180.780334,229.422562 180.387115,234.574051 
	C177.527374,234.672943 173.380753,236.963333 173.208542,232.795227 
	C172.969391,227.006989 169.714188,227.579315 165.742386,227.947418 
	C165.319122,227.932297 165.149506,227.945938 164.979874,227.959579 
	C164.979874,227.959579 165.001419,227.999283 165.014603,227.564667 
	C164.989090,219.854813 164.989090,219.854813 157.212708,219.932968 
	C157.187286,212.278778 157.161880,204.624573 157.203217,196.511871 
z"/>
<path fill="#FBC3A0" opacity="1.000000" stroke="none" 
	d="
M165.996017,227.976151 
	C169.714188,227.579315 172.969391,227.006989 173.208542,232.795227 
	C173.380753,236.963333 177.527374,234.672943 180.390625,235.038239 
	C184.923126,235.132156 189.547684,234.420212 189.215210,241.004517 
	C189.183044,241.641266 191.345535,242.873535 192.570114,242.991730 
	C195.432800,243.268005 196.122360,244.780746 196.101974,247.306595 
	C196.078873,250.171051 194.550644,251.052322 191.990921,250.975235 
	C190.335770,250.925385 188.667236,251.099350 187.022781,250.959930 
	C183.188141,250.634796 180.842422,251.380386 180.688675,256.133575 
	C180.544800,260.581909 176.365387,258.283234 173.565857,259.051636 
	C173.100754,258.287170 173.065079,257.503632 173.208801,256.159912 
	C173.305832,255.086227 173.223495,254.572708 173.141144,254.059204 
	C173.106430,252.634491 173.071701,251.209763 173.215179,249.190308 
	C173.309631,248.083801 173.225906,247.572021 173.142181,247.060257 
	C173.094864,246.254181 173.047531,245.448105 172.848724,243.938797 
	C170.221054,242.489716 167.744888,241.743881 165.268723,240.998032 
	C165.235550,237.970917 165.202393,234.943817 165.506134,231.437012 
	C165.894043,229.963608 165.945038,228.969879 165.996017,227.976151 
z"/>
<path fill="#F8C4A2" opacity="1.000000" stroke="none" 
	d="
M211.812057,110.532990 
	C212.162979,113.442368 212.100952,116.266510 211.964828,119.087074 
	C211.778015,122.958138 211.603928,126.169907 217.332031,126.281319 
	C221.498489,126.362358 219.341583,130.700500 219.548538,133.555679 
	C211.957123,133.783569 211.964020,133.783600 211.929611,140.695511 
	C211.914017,143.828033 211.864807,146.960373 211.830841,150.092804 
	C209.563263,150.046158 207.295670,149.999496 204.552414,149.562103 
	C204.018066,147.110260 203.959366,145.049194 203.928986,142.674255 
	C203.952881,142.150375 203.948456,141.940323 203.956177,141.278595 
	C204.008194,133.543167 204.048080,126.259422 204.219269,118.816231 
	C204.330048,118.156631 204.309509,117.656471 204.288956,117.156319 
	C203.975754,110.010101 203.975754,110.010101 211.812057,110.532990 
z"/>
<path fill="#FDBE9A" opacity="1.000000" stroke="none" 
	d="
M344.912262,172.283737 
	C340.424133,173.316101 336.004456,173.939407 336.678986,166.954575 
	C336.729645,166.429916 334.505493,165.101547 333.387390,165.155441 
	C329.750732,165.330734 328.731842,163.621582 329.030609,160.375061 
	C329.165955,158.904358 329.048645,157.410736 329.052399,155.927536 
	C329.069336,149.276093 329.070160,149.276093 336.350464,149.332764 
	C337.202454,153.146393 335.892212,158.152618 342.730865,157.410950 
	C343.319580,157.347107 344.700470,159.721344 344.809662,161.037949 
	C345.106445,164.617142 344.917816,168.236603 344.912262,172.283737 
z"/>
<path fill="#F7FADE" opacity="1.000000" stroke="none" 
	d="
M180.663849,148.903961 
	C176.664322,149.179855 171.985641,148.390396 172.513550,155.066299 
	C172.551147,155.541779 168.191605,156.364975 165.438660,157.013474 
	C165.000671,157.000458 165.011566,157.010406 165.068909,156.781342 
	C165.126266,156.552261 165.033508,156.089172 165.033508,156.089172 
	C165.038605,152.032410 165.043701,147.975632 165.246399,143.308685 
	C165.648727,142.474030 165.768875,142.210892 165.804413,141.909103 
	C165.804413,141.909103 165.873734,141.850327 166.225616,141.859451 
	C166.771545,141.802155 166.965576,141.735748 167.159622,141.669327 
	C168.405807,141.643646 169.651978,141.617966 171.639633,141.463226 
	C172.587036,139.232681 172.792969,137.131210 172.998901,135.029724 
	C172.998901,135.029724 172.977173,134.997803 173.172363,134.842682 
	C173.593292,134.470428 173.757629,134.213959 173.860565,133.918137 
	C173.860565,133.918137 173.920013,133.877518 174.336823,133.969040 
	C175.527374,133.987457 176.301132,133.914337 177.074875,133.841217 
	C177.482590,133.836594 177.890305,133.831955 178.897003,134.085693 
	C179.997299,136.814911 180.498642,139.285751 180.921417,142.204910 
	C180.783173,144.736801 180.723511,146.820374 180.663849,148.903961 
z"/>
<path fill="#FBC3A0" opacity="1.000000" stroke="none" 
	d="
M190.002884,320.965332 
	C189.549072,321.085449 189.095261,321.205566 188.436432,321.417969 
	C180.478638,321.588928 180.491074,321.588898 180.474716,313.689026 
	C180.466721,309.833191 181.528381,305.339172 175.115829,305.444031 
	C174.421494,305.455383 173.156189,303.380463 173.078293,302.211761 
	C172.826797,298.438538 173.006271,294.636566 173.097321,290.379028 
	C180.896561,290.150818 180.890030,290.150818 180.905701,297.472809 
	C180.914749,301.700470 179.842621,306.542816 186.863235,306.360107 
	C187.446808,306.344910 188.129333,310.131256 188.465851,312.396118 
	C187.771973,311.763306 187.520584,310.776031 186.949783,310.034760 
	C186.162979,309.012939 185.134979,308.176819 184.210312,307.261139 
	C183.485764,308.390533 182.412201,309.438293 182.124191,310.669800 
	C181.756409,312.242249 182.015930,313.963074 182.017349,315.619934 
	C182.020233,318.954407 182.962814,320.797150 186.848373,319.243652 
	C187.557129,318.960297 188.934280,320.348663 190.002884,320.965332 
z"/>
<path fill="#FBBF9F" opacity="1.000000" stroke="none" 
	d="
M180.999985,141.756607 
	C180.498642,139.285751 179.997299,136.814911 179.202332,134.103973 
	C179.684372,126.066368 184.811325,124.806091 191.391403,125.242516 
	C192.647812,125.325859 195.148224,123.831192 195.141052,123.083084 
	C195.081192,116.832100 199.507401,117.547661 203.852295,117.247833 
	C204.309509,117.656471 204.330048,118.156631 203.775543,118.802788 
	C199.610504,118.628693 196.564896,118.809082 196.744446,123.799889 
	C196.776917,124.702377 194.942383,126.477753 193.969940,126.477638 
	C188.380417,126.476990 188.497192,129.921310 188.967682,134.186279 
	C188.848328,135.046875 188.851288,135.548920 188.802567,136.457123 
	C189.397186,143.610519 184.419357,141.449295 180.999985,141.756607 
z"/>
<path fill="#F7FADE" opacity="1.000000" stroke="none" 
	d="
M164.995300,156.995041 
	C165.010239,160.315552 165.062149,163.641632 165.044083,166.967361 
	C165.010132,173.214783 164.369995,173.682388 157.577728,172.141479 
	C157.201828,169.139328 157.411423,166.285721 157.076355,163.497559 
	C156.487198,158.594879 158.097488,156.189941 163.961456,157.144806 
	C164.615540,157.163513 165.011566,157.010406 165.011566,157.010406 
	C165.011566,157.010406 165.000671,157.000458 164.995300,156.995041 
z"/>
<path fill="#BB7064" opacity="1.000000" stroke="none" 
	d="
M173.097427,266.985535 
	C175.433685,266.570129 177.715546,266.570129 180.432678,266.570129 
	C180.432678,271.894653 180.432678,276.729340 179.946228,281.840637 
	C179.459793,282.117188 179.118835,282.240936 179.118835,282.240906 
	C178.625809,282.228058 178.132767,282.215210 176.969849,282.142151 
	C175.891632,282.133789 175.483322,282.185608 175.074997,282.237427 
	C174.670349,282.237427 174.265686,282.237396 173.560669,282.210144 
	C173.187881,277.255615 173.115463,272.328308 173.097427,266.985535 
z"/>
<path fill="#F8C4A2" opacity="1.000000" stroke="none" 
	d="
M227.616425,102.754913 
	C227.679886,111.104782 227.679886,111.104782 217.334122,110.594780 
	C217.737656,109.642326 219.187683,108.823250 219.159409,108.058823 
	C218.923950,101.689857 222.927017,101.967812 227.616425,102.754913 
z"/>
<path fill="#FBC3A0" opacity="1.000000" stroke="none" 
	d="
M180.809250,399.412476 
	C180.864456,403.275330 181.593079,407.770447 175.402618,407.453827 
	C174.761703,407.421051 173.511108,409.532776 173.402298,410.727722 
	C173.091278,414.143646 173.222870,417.599823 173.106262,421.495361 
	C173.050385,415.161041 172.777328,408.344116 173.410553,401.612488 
	C173.502335,400.636932 177.938156,400.070007 180.809250,399.412476 
z"/>
<path fill="#FBC3A0" opacity="1.000000" stroke="none" 
	d="
M173.278931,422.341919 
	C198.050980,422.039032 223.058762,422.094208 248.850433,422.116699 
	C250.051102,422.025146 250.467896,421.966278 250.884689,421.907379 
	C250.940277,422.074554 250.995880,422.241699 251.081726,422.670685 
	C225.246216,422.855042 199.380432,422.777496 173.278931,422.341919 
z"/>
<path fill="#FBC3A0" opacity="1.000000" stroke="none" 
	d="
M204.075623,336.491943 
	C201.814575,337.010193 199.554916,337.089813 196.882019,337.201843 
	C196.366394,334.863464 196.263992,332.492645 196.179550,329.689331 
	C203.995071,328.803741 203.995071,328.803741 204.075623,336.491943 
z"/>
<path fill="#FDBE9A" opacity="1.000000" stroke="none" 
	d="
M157.166946,220.376175 
	C164.989090,219.854813 164.989090,219.854813 165.033371,227.577240 
	C164.714188,227.989700 164.390213,227.937302 164.064545,227.922836 
	C157.101379,227.613724 157.101349,227.614532 157.166946,220.376175 
z"/>
<path fill="#FBC3A0" opacity="1.000000" stroke="none" 
	d="
M196.204773,353.406433 
	C196.454453,364.403625 196.569260,375.854492 196.503143,387.673645 
	C196.238129,376.647980 196.154007,365.254059 196.204773,353.406433 
z"/>
<path fill="#F8C4A2" opacity="1.000000" stroke="none" 
	d="
M297.917725,117.595108 
	C297.028748,115.778587 296.141998,113.533661 295.157166,110.974663 
	C300.219208,110.979553 296.900299,115.027023 297.917725,117.595108 
z"/>
<path fill="#FDBE9A" opacity="1.000000" stroke="none" 
	d="
M165.253723,241.355774 
	C167.744888,241.743881 170.221054,242.489716 172.866669,243.534882 
	C170.436981,243.127289 167.837860,242.420395 165.253723,241.355774 
z"/>
<path fill="#F8C4A2" opacity="1.000000" stroke="none" 
	d="
M282.394531,109.619919 
	C281.643280,107.893646 280.958832,105.766457 280.127472,103.297821 
	C284.601135,103.541161 281.756378,107.083145 282.394531,109.619919 
z"/>
<path fill="#F8C4A2" opacity="1.000000" stroke="none" 
	d="
M305.280975,119.626297 
	C302.968658,119.525558 300.622375,119.096474 298.126343,118.376221 
	C300.400085,118.489357 302.823547,118.893646 305.280975,119.626297 
z"/>
<path fill="#FBBF9F" opacity="1.000000" stroke="none" 
	d="
M172.850067,135.364532 
	C172.792969,137.131210 172.587036,139.232681 172.013336,141.472961 
	C171.997452,139.640961 172.349335,137.670151 172.850067,135.364532 
z"/>
<path fill="#FBC3A0" opacity="1.000000" stroke="none" 
	d="
M196.198364,344.379791 
	C196.451645,346.099548 196.573669,348.248016 196.521027,350.715576 
	C196.253281,348.959290 196.160187,346.883911 196.198364,344.379791 
z"/>
<path fill="#FDBE9A" opacity="1.000000" stroke="none" 
	d="
M165.742386,227.947418 
	C165.945038,228.969879 165.894043,229.963608 165.579102,230.988892 
	C165.206238,230.257477 165.097336,229.494522 164.984161,228.345566 
	C165.149506,227.945938 165.319122,227.932297 165.742386,227.947418 
z"/>
<path fill="#FBC3A0" opacity="1.000000" stroke="none" 
	d="
M172.838181,284.289917 
	C173.036285,285.084717 173.100098,286.141022 173.067307,287.584290 
	C172.881760,286.831299 172.792816,285.691376 172.838181,284.289917 
z"/>
<path fill="#F8C4A2" opacity="1.000000" stroke="none" 
	d="
M269.808868,102.893204 
	C269.449615,103.097115 268.906769,103.190765 268.185547,103.143593 
	C268.546509,102.929489 269.085907,102.856216 269.808868,102.893204 
z"/>
<path fill="#F8C4A2" opacity="1.000000" stroke="none" 
	d="
M273.806183,102.898956 
	C273.447479,103.103378 272.906708,103.195648 272.188202,103.147980 
	C272.548370,102.934288 273.086212,102.860550 273.806183,102.898956 
z"/>
<path fill="#FDBE9A" opacity="1.000000" stroke="none" 
	d="
M173.028534,254.230652 
	C173.223495,254.572708 173.305832,255.086227 173.262054,255.769653 
	C173.062592,255.427078 172.989258,254.914597 173.028534,254.230652 
z"/>
<path fill="#FDBE9A" opacity="1.000000" stroke="none" 
	d="
M173.028748,247.231293 
	C173.225906,247.572021 173.309631,248.083801 173.268326,248.765289 
	C173.067307,248.424118 172.991318,247.913223 173.028748,247.231293 
z"/>
<path fill="#FBC3A0" opacity="1.000000" stroke="none" 
	d="
M196.216156,391.325134 
	C196.451370,391.825378 196.561600,392.702515 196.512177,393.807312 
	C196.265396,393.257294 196.178284,392.479675 196.216156,391.325134 
z"/>
<path fill="#FBBF9F" opacity="1.000000" stroke="none" 
	d="
M176.840454,133.689819 
	C176.301132,133.914337 175.527374,133.987457 174.372467,133.974075 
	C174.862900,133.771194 175.734467,133.654800 176.840454,133.689819 
z"/>
<path fill="#FBC3A0" opacity="1.000000" stroke="none" 
	d="
M196.053253,398.582855 
	C196.221390,398.788788 196.132339,398.960724 195.808640,399.124908 
	C195.588348,398.916199 195.662369,398.726776 196.053253,398.582855 
z"/>
<path fill="#FBC3A0" opacity="1.000000" stroke="none" 
	d="
M196.282654,397.202332 
	C196.470001,397.112213 196.596252,397.305786 196.665955,397.517975 
	C196.696060,397.609619 196.609329,397.739624 196.445282,397.970398 
	C196.276138,397.890198 196.237381,397.691864 196.282654,397.202332 
z"/>
<path fill="#F8C4A2" opacity="1.000000" stroke="none" 
	d="
M214.791916,110.384506 
	C214.779541,110.536293 214.477859,110.616623 214.052032,110.584045 
	C214.119476,110.418449 214.311035,110.365761 214.791916,110.384506 
z"/>
<path fill="#FBC2A0" opacity="1.000000" stroke="none" 
	d="
M165.068909,156.781342 
	C165.011566,157.010406 164.615540,157.163513 164.405884,157.136154 
	C164.296829,156.820862 164.457504,156.571640 164.855881,156.225159 
	C165.033508,156.089172 165.126266,156.552261 165.068909,156.781342 
z"/>
<path fill="#FBBF9F" opacity="1.000000" stroke="none" 
	d="
M173.611404,133.985962 
	C173.757629,134.213959 173.593292,134.470428 173.187790,134.831055 
	C173.126099,134.667633 173.244171,134.360718 173.611404,133.985962 
z"/>
<path fill="#FBBF9F" opacity="1.000000" stroke="none" 
	d="
M165.578705,142.000351 
	C165.768875,142.210892 165.648727,142.474030 165.281021,142.845154 
	C165.010117,142.643066 165.088440,142.343002 165.578705,142.000351 
z"/>
<path fill="#FBBF9F" opacity="1.000000" stroke="none" 
	d="
M167.014740,141.560944 
	C166.965576,141.735748 166.771545,141.802155 166.270935,141.856216 
	C166.266205,141.713425 166.568039,141.583008 167.014740,141.560944 
z"/>
<path fill="#BB6C60" opacity="1.000000" stroke="none" 
	d="
M180.921417,142.204910 
	C184.419357,141.449295 189.397186,143.610519 189.149536,136.313080 
	C195.070709,133.422974 194.517319,138.385818 196.078125,141.181580 
	C196.268997,141.326202 196.695145,141.542465 196.695145,141.542465 
	C196.695145,141.542465 197.173019,141.541733 197.180756,141.650574 
	C197.188507,141.759399 197.012482,141.888351 197.324066,142.118103 
	C199.723999,142.561264 201.812332,142.774689 203.900665,142.988113 
	C203.959366,145.049194 204.018066,147.110260 204.129303,149.608551 
	C204.140045,152.074295 204.098251,154.102859 203.582947,156.603180 
	C195.873459,157.297852 195.873459,157.297852 196.416046,165.202896 
	C196.416046,165.202896 196.226776,165.250366 195.919830,165.511963 
	C195.406067,170.326096 194.925842,174.887482 195.073044,179.428543 
	C195.207138,183.564865 194.592316,186.872086 190.069733,188.152832 
	C189.561447,190.045853 189.053146,191.938858 188.313019,194.326721 
	C187.745926,195.220886 187.410660,195.620209 187.075409,196.019531 
	C182.709564,196.093018 178.343704,196.166504 173.520264,196.248459 
	C173.029633,189.796860 173.054596,183.335724 172.935120,176.877243 
	C172.886856,174.267593 173.635941,172.897507 176.556717,172.898300 
	C179.338242,172.899078 181.123276,173.516922 180.826874,176.726868 
	C180.556473,179.655136 181.766602,180.863678 184.826050,180.856155 
	C188.063461,180.848206 188.777344,179.198380 188.692566,176.484787 
	C188.625336,174.333054 188.550293,172.167160 188.715637,170.025848 
	C188.978561,166.620987 188.089249,164.755188 184.122528,164.821548 
	C183.045868,164.839554 181.144699,162.613449 180.982681,161.255051 
	C180.534409,157.496124 180.804184,153.651596 180.726974,149.372437 
	C180.723511,146.820374 180.783173,144.736801 180.921417,142.204910 
z"/>
<path fill="#FBBF9F" opacity="1.000000" stroke="none" 
	d="
M266.884399,298.579834 
	C274.266296,297.625244 274.264709,297.625244 274.255219,290.227203 
	C274.251190,287.072662 274.138947,283.912750 274.285492,280.765015 
	C274.460388,277.009003 274.509644,273.684204 269.145050,273.967865 
	C268.433838,274.005432 266.980103,271.675934 266.994629,270.456055 
	C267.008942,269.252380 268.211365,267.666809 269.337799,266.992096 
	C270.317413,266.405334 271.918701,266.856384 274.127930,266.861328 
	C282.029480,267.016632 282.029480,267.016632 282.045349,274.184326 
	C282.063232,282.259491 282.063232,282.259491 289.893677,282.024963 
	C289.944641,283.517609 289.563934,285.219849 290.160065,286.447815 
	C290.845062,287.858734 292.333496,289.759277 293.581238,289.843506 
	C296.661255,290.051483 298.325500,290.853424 297.961884,294.208221 
	C297.657288,297.018646 299.055237,298.212402 301.778351,297.923370 
	C305.267365,297.553131 306.037384,299.488556 305.861725,302.460724 
	C305.734558,304.612335 305.803101,306.777771 305.839722,308.936127 
	C305.881653,311.409668 305.819061,313.616028 302.379456,313.709930 
	C299.289703,313.794342 297.599091,312.818359 297.925598,309.461639 
	C298.209015,306.547882 296.579956,305.707642 293.968750,305.825562 
	C291.814270,305.922882 289.642548,305.965851 287.494751,305.809357 
	C283.997345,305.554535 281.715851,306.216675 281.933228,310.566559 
	C281.981812,311.538971 279.766083,313.493896 278.667114,313.441437 
	C277.183441,313.370575 274.479095,311.703857 274.537384,310.880402 
	C274.935822,305.252686 271.235138,305.750732 267.246643,305.744324 
	C266.816956,303.482391 266.847656,301.241882 266.884399,298.579834 
z"/>
<path fill="#FBC2A1" opacity="1.000000" stroke="none" 
	d="
M266.285278,305.778259 
	C266.728088,312.111298 266.632111,318.441742 266.806915,324.764709 
	C266.896637,328.009644 265.689667,329.363647 262.438629,329.075806 
	C260.621368,328.914917 258.767975,329.172638 256.948364,329.025574 
	C253.166321,328.719879 250.331970,329.192444 250.811935,334.162109 
	C250.891632,334.987183 249.217804,336.669983 248.221252,336.782959 
	C245.096725,337.137146 241.852188,337.278870 238.771576,336.779022 
	C237.442505,336.563385 235.431412,334.587952 235.410904,333.383362 
	C235.348160,329.699005 233.669815,328.746185 230.435760,329.031952 
	C228.948959,329.163330 227.434326,328.961334 225.943161,329.065582 
	C222.269226,329.322388 219.314285,329.075531 219.640259,324.007202 
	C219.695648,323.146179 217.108185,321.432159 215.636444,321.301971 
	C212.806747,321.051697 211.960159,319.932068 211.927429,317.252380 
	C211.894196,314.532776 212.759232,313.104614 215.612320,313.348724 
	C220.915756,313.802399 219.711060,309.906464 219.931946,306.512085 
	C223.737137,305.796997 227.873840,304.713135 228.161316,310.816986 
	C228.199631,311.630524 230.147858,312.813354 231.347351,313.014099 
	C233.606049,313.392181 235.963760,313.174438 238.280182,313.212708 
	C241.110229,313.259491 243.167389,314.174255 243.064072,317.500458 
	C242.974426,320.387329 244.694794,320.978088 247.199844,321.130951 
	C258.514618,321.821289 258.779877,321.874268 258.841675,310.687958 
	C258.873291,304.969604 262.528381,305.966553 266.285278,305.778259 
z"/>
<path fill="#BB7064" opacity="1.000000" stroke="none" 
	d="
M212.008835,227.950836 
	C209.559784,227.748703 207.110748,227.546570 204.404816,227.323227 
	C204.201736,224.976303 204.019821,222.873734 203.776306,220.059479 
	C198.951859,220.059479 194.085236,220.059479 188.843719,220.059479 
	C188.843719,217.121841 188.843719,214.893661 188.843719,212.331894 
	C191.125580,212.095459 193.354965,211.864471 195.803558,211.610764 
	C196.072296,209.180557 196.320465,206.936417 196.643463,204.015656 
	C198.905304,204.015656 201.008911,204.015656 204.014008,204.016754 
	C214.989838,203.951492 225.064163,203.885117 235.138504,203.818756 
	C237.455246,203.908783 239.771988,203.998810 242.556152,204.554626 
	C243.272491,211.819168 243.272507,211.818832 249.911469,211.980331 
	C250.235672,211.988205 250.559494,212.011169 250.883499,212.027100 
	C250.883499,214.343475 250.883499,216.659851 250.883499,219.479645 
	C248.475067,219.641220 246.223602,219.792252 243.103546,219.960846 
	C239.912460,219.917221 237.589935,219.856033 235.261200,219.777649 
	C235.254959,219.760452 235.216751,219.763199 235.235016,219.582001 
	C235.253296,219.400787 235.146790,219.052383 235.160858,218.604858 
	C236.059326,213.012787 233.747482,211.435501 228.817780,211.906006 
	C224.722275,212.296906 220.549911,212.184555 216.431870,211.945648 
	C212.868561,211.738937 211.621384,213.229782 211.985672,216.578110 
	C212.110336,217.723938 212.077423,218.886902 212.063568,220.483307 
	C211.994797,223.302078 211.978973,225.679581 211.961823,228.025040 
	C211.960495,227.992996 212.008835,227.950851 212.008835,227.950836 
z"/>
<path fill="#BB7064" opacity="1.000000" stroke="none" 
	d="
M211.868256,150.553802 
	C211.864807,146.960373 211.914017,143.828033 211.929611,140.695511 
	C211.964020,133.783600 211.957123,133.783569 219.547546,133.997864 
	C219.994980,134.027634 220.004700,133.997910 219.968704,134.467026 
	C219.936661,138.583969 219.766281,142.245346 220.047714,145.871628 
	C220.135452,147.002182 221.514801,149.012558 222.183716,148.964417 
	C228.049500,148.542221 227.993225,152.237686 227.801987,156.322372 
	C227.670380,159.133377 227.821442,161.957626 227.846161,164.775955 
	C225.405685,164.944855 222.965210,165.113754 220.230743,165.303009 
	C219.997299,167.708664 219.780289,169.944962 219.527908,172.545700 
	C217.178986,172.545700 214.963684,172.545700 211.905685,172.545700 
	C211.905685,165.412354 211.905685,158.213593 211.868256,150.553802 
z"/>
<path fill="#FBC2A0" opacity="1.000000" stroke="none" 
	d="
M305.883514,188.718262 
	C305.902679,181.989731 305.929108,175.674286 305.833893,169.360703 
	C305.793457,166.680756 306.258850,164.939178 309.605011,164.987091 
	C312.661102,165.030838 313.958832,166.106934 313.470032,169.135284 
	C313.013245,171.965485 314.218994,173.228363 317.038300,172.935257 
	C320.464600,172.579025 321.319000,174.407654 321.191132,177.435211 
	C321.045654,180.878616 321.157501,184.332886 321.157501,188.184677 
	C316.267151,187.840897 312.842316,188.696732 313.100952,194.320450 
	C313.123322,194.807480 308.983521,195.485931 306.335388,196.007019 
	C305.876343,193.669754 305.858948,191.400925 305.883514,188.718262 
z"/>
<path fill="#BB7064" opacity="1.000000" stroke="none" 
	d="
M235.093597,142.063049 
	C237.536392,141.820557 239.979187,141.578049 243.071686,141.271057 
	C243.071686,136.260345 243.071686,131.384247 243.071686,126.001457 
	C245.853622,126.001457 247.966217,126.001457 250.519791,126.016586 
	C250.975525,133.471634 250.990280,140.911545 250.993851,148.845947 
	C248.536331,149.463562 246.089996,149.586700 243.445633,149.719818 
	C243.235489,152.217606 243.058517,154.321304 242.820908,157.145630 
	C240.505997,157.145630 238.253403,157.145630 235.575531,156.645096 
	C235.131378,151.450729 235.112488,146.756882 235.093597,142.063049 
z"/>
<path fill="#FBC4A4" opacity="1.000000" stroke="none" 
	d="
M234.667999,142.009781 
	C235.112488,146.756882 235.131378,151.450729 235.130737,156.618652 
	C235.163345,165.029892 235.163345,165.029892 228.287506,164.837357 
	C227.821442,161.957626 227.670380,159.133377 227.801987,156.322372 
	C227.993225,152.237686 228.049500,148.542221 222.183716,148.964417 
	C221.514801,149.012558 220.135452,147.002182 220.047714,145.871628 
	C219.766281,142.245346 219.936661,138.583969 219.954163,134.469330 
	C224.283447,133.656647 228.388397,133.308060 228.439163,139.729691 
	C228.445145,140.487198 232.216507,141.214966 234.667999,142.009781 
z"/>
<path fill="#FBC4A4" opacity="1.000000" stroke="none" 
	d="
M235.146088,203.387512 
	C225.064163,203.885117 214.989838,203.951492 204.449951,203.963486 
	C204.145950,196.103912 204.145950,196.104050 211.895874,196.102295 
	C217.354111,196.101074 222.812332,196.094208 228.270569,196.099350 
	C235.072769,196.105743 235.072769,196.109955 235.146088,203.387512 
z"/>
<path fill="#FBC2A1" opacity="1.000000" stroke="none" 
	d="
M258.324005,234.973267 
	C258.791931,240.903351 258.567902,246.887299 258.987610,252.825760 
	C259.324829,257.596436 257.767487,259.651917 252.923370,258.935883 
	C251.954300,258.792664 250.939453,258.959381 249.509094,258.904724 
	C249.717880,257.228119 250.807205,255.660690 250.920410,254.025681 
	C251.194092,250.072968 251.004623,246.088699 251.015793,242.117188 
	C251.034622,235.420044 251.039169,235.420059 258.324005,234.973267 
z"/>
<path fill="#FBC2A1" opacity="1.000000" stroke="none" 
	d="
M235.448715,267.111389 
	C239.360321,266.839600 243.953430,265.848267 243.411880,272.334534 
	C243.366791,272.874542 245.896561,274.159088 247.244492,274.180359 
	C250.471268,274.231293 251.039429,275.831238 251.039276,278.608459 
	C251.039108,281.650635 249.446411,282.186646 246.940445,282.130249 
	C243.288513,282.048096 239.633286,282.112091 235.522125,282.056091 
	C235.158630,277.196594 235.252457,272.394745 235.448715,267.111389 
z"/>
<path fill="#FBC4A4" opacity="1.000000" stroke="none" 
	d="
M190.434799,321.027039 
	C188.934280,320.348663 187.557129,318.960297 186.848373,319.243652 
	C182.962814,320.797150 182.020233,318.954407 182.017349,315.619934 
	C182.015930,313.963074 181.756409,312.242249 182.124191,310.669800 
	C182.412201,309.438293 183.485764,308.390533 184.210312,307.261139 
	C185.134979,308.176819 186.162979,309.012939 186.949783,310.034760 
	C187.520584,310.776031 187.771973,311.763306 188.450256,312.827057 
	C190.877426,313.052338 193.020111,313.091461 195.615128,313.118713 
	C195.756927,316.694733 198.224930,322.092987 190.434799,321.027039 
z"/>
<path fill="#F8C4A2" opacity="1.000000" stroke="none" 
	d="
M213.625122,259.289307 
	C217.361664,259.074188 220.684143,259.047577 224.003876,258.938080 
	C226.776230,258.846588 227.859787,260.180786 227.840164,262.877777 
	C227.820404,265.590912 226.600296,266.861694 223.919708,266.846863 
	C221.758804,266.834900 219.597336,266.900269 217.436691,266.876862 
	C211.692581,266.814606 210.771576,265.181305 213.625122,259.289307 
z"/>
<path fill="#F5BD9F" opacity="1.000000" stroke="none" 
	d="
M220.000992,290.473999 
	C227.568863,289.994934 227.568863,289.994934 227.913956,297.399414 
	C219.963440,298.018982 219.963440,298.018982 220.000992,290.473999 
z"/>
<path fill="#F8C4A2" opacity="1.000000" stroke="none" 
	d="
M180.762573,219.716599 
	C180.222321,220.084839 179.720245,219.884048 179.257385,219.951645 
	C173.481033,220.795273 172.150665,217.781540 173.072189,212.385178 
	C180.997864,212.063171 180.997864,212.063171 180.762573,219.716599 
z"/>
<path fill="#EDC3AB" opacity="1.000000" stroke="none" 
	d="
M235.267426,219.794861 
	C237.589935,219.856033 239.912460,219.917221 242.673553,220.035324 
	C243.023911,227.719696 243.023911,227.719696 235.531097,227.995895 
	C235.010239,227.991150 235.027832,227.802505 235.021698,227.363678 
	C235.099503,224.548187 235.183472,222.171524 235.267426,219.794861 
z"/>
<path fill="#EDC3AB" opacity="1.000000" stroke="none" 
	d="
M196.830170,165.173340 
	C195.873459,157.297852 195.873459,157.297852 203.544434,157.035797 
	C204.197968,164.821976 204.197968,164.821976 196.830170,165.173340 
z"/>
<path fill="#F8C4A2" opacity="1.000000" stroke="none" 
	d="
M250.918396,211.588272 
	C250.559494,212.011169 250.235672,211.988205 249.911469,211.980331 
	C243.272507,211.818832 243.272491,211.819168 242.990067,204.595383 
	C251.014847,203.873184 251.014847,203.873184 250.918396,211.588272 
z"/>
<path fill="#A76C62" opacity="1.000000" stroke="none" 
	d="
M235.103699,228.006546 
	C235.197174,230.159149 235.197174,232.296356 235.197174,234.856964 
	C227.501785,234.856964 220.033707,234.856964 211.968719,234.856964 
	C211.968719,232.720856 211.968719,230.789932 211.988770,228.404938 
	C212.008835,227.950851 211.960495,227.992996 212.414749,227.883942 
	C220.255280,227.784088 227.641556,227.793289 235.027832,227.802490 
	C235.027832,227.802505 235.010239,227.991150 235.103699,228.006546 
M233.785278,231.610107 
	C233.670074,231.133041 233.571198,230.243439 233.437332,230.238144 
	C227.146561,229.989059 220.852737,229.816803 214.559265,229.635742 
	C214.685059,230.941956 214.850433,233.393982 214.931030,233.391190 
	C221.169449,233.175690 227.401184,232.767365 233.785278,231.610107 
z"/>
<path fill="#FBC4A4" opacity="1.000000" stroke="none" 
	d="
M273.776764,204.308319 
	C274.254791,211.978973 274.254791,211.978973 267.269684,211.799683 
	C266.974335,203.996735 266.974335,203.996735 273.776764,204.308319 
z"/>
<path fill="#A76C62" opacity="1.000000" stroke="none" 
	d="
M190.481384,188.252136 
	C194.592316,186.872086 195.207138,183.564865 195.073044,179.428543 
	C194.925842,174.887482 195.406067,170.326096 195.847137,165.446884 
	C196.127014,165.509201 196.172638,165.898209 196.136139,167.046234 
	C196.126877,171.566711 196.199738,175.328125 196.272598,179.089554 
	C196.258636,181.077316 196.244675,183.065079 196.197418,185.768890 
	C196.210144,186.676529 196.256165,186.868149 196.302170,187.059753 
	C194.499115,187.490311 192.696075,187.920868 190.481384,188.252136 
z"/>
<path fill="#EDC3AB" opacity="1.000000" stroke="none" 
	d="
M196.438004,178.718018 
	C196.199738,175.328125 196.126877,171.566711 196.154266,167.341721 
	C196.370804,170.700928 196.487106,174.523697 196.438004,178.718018 
z"/>
<path fill="#FBC3A0" opacity="1.000000" stroke="none" 
	d="
M175.239624,282.354248 
	C175.483322,282.185608 175.891632,282.133789 176.600128,282.155884 
	C176.401611,282.310211 175.902924,282.390656 175.239624,282.354248 
z"/>
<path fill="#EDC3AB" opacity="1.000000" stroke="none" 
	d="
M187.371979,195.981781 
	C187.410660,195.620209 187.745926,195.220886 188.331314,194.713486 
	C188.277145,195.051620 187.972855,195.497833 187.371979,195.981781 
z"/>
<path fill="#FBC2A1" opacity="1.000000" stroke="none" 
	d="
M258.701019,231.256897 
	C258.868683,231.503021 258.917664,231.910980 258.889465,232.618332 
	C258.735596,232.418076 258.658966,231.918396 258.701019,231.256897 
z"/>
<path fill="#EDC3AB" opacity="1.000000" stroke="none" 
	d="
M196.402313,186.930054 
	C196.256165,186.868149 196.210144,186.676529 196.219376,186.194305 
	C196.529114,186.156281 196.605057,186.455185 196.402313,186.930054 
z"/>
<path fill="#FBC3A0" opacity="1.000000" stroke="none" 
	d="
M179.196442,282.324921 
	C179.118835,282.240936 179.459793,282.117188 179.636887,282.140930 
	C179.713654,282.405396 179.533691,282.486816 179.196442,282.324921 
z"/>
<path fill="#F8C4A2" opacity="1.000000" stroke="none" 
	d="
M227.960480,352.307983 
	C227.970383,366.500763 227.994003,380.277863 227.757751,394.050446 
	C227.726089,395.895966 226.890991,398.591309 225.543228,399.378479 
	C222.311920,401.265900 219.926682,399.189362 219.915329,394.821289 
	C219.873032,378.553314 219.896790,362.285187 219.891632,345.554199 
	C227.481812,344.596222 227.481812,344.596222 227.960480,352.307983 
z"/>
<path fill="#F5BD9F" opacity="1.000000" stroke="none" 
	d="
M243.037445,399.302551 
	C243.061111,385.506378 243.051758,371.886963 243.096939,358.267700 
	C243.105865,355.576965 242.241058,352.428253 246.848511,352.307800 
	C251.699554,352.180939 251.024185,355.381561 251.016556,358.346497 
	C251.015686,358.678680 251.011871,359.010834 251.021515,360.241608 
	C251.004807,370.564545 250.959213,379.988892 250.952103,389.413239 
	C250.945633,398.009674 250.964005,398.009674 243.102829,399.825012 
	C243.102829,399.825012 243.023560,399.479340 243.037445,399.302551 
z"/>
<path fill="#F6F8E0" opacity="1.000000" stroke="none" 
	d="
M243.325012,400.041412 
	C250.964005,398.009674 250.945633,398.009674 250.952103,389.413239 
	C250.959213,379.988892 251.004807,370.564545 251.035049,360.689453 
	C253.448654,360.393036 255.860809,360.547302 258.601532,361.340759 
	C258.986481,373.959381 259.042847,385.938782 259.099243,397.918213 
	C256.707886,398.676910 254.316544,399.435608 250.971298,400.496948 
	C250.971298,406.920380 250.971298,413.954315 250.927994,421.447815 
	C250.467896,421.966278 250.051102,422.025146 249.318542,422.086853 
	C249.316498,416.359131 249.699600,410.631287 249.921997,404.897217 
	C250.099503,400.320648 245.819199,401.611908 243.325012,400.041412 
z"/>
<path fill="#FBC2A1" opacity="1.000000" stroke="none" 
	d="
M274.263275,386.983093 
	C274.256866,390.136475 274.184448,392.795410 274.261108,395.450073 
	C274.340942,398.214355 272.997528,399.799835 270.393921,399.052643 
	C268.988617,398.649292 267.002869,396.835052 266.971924,395.614502 
	C266.702881,384.992920 266.703705,374.358704 266.977539,363.737335 
	C267.008118,362.550598 269.064850,360.783966 270.482605,360.401917 
	C273.117798,359.691772 274.319458,361.310974 274.288544,364.067505 
	C274.204773,371.539764 274.261688,379.013550 274.263275,386.983093 
z"/>
<path fill="#FBBF9F" opacity="1.000000" stroke="none" 
	d="
M290.040955,381.012634 
	C290.034882,385.986603 289.954865,390.464630 290.049866,394.938965 
	C290.108185,397.685455 289.435547,399.309753 286.208313,399.296234 
	C283.232574,399.283722 282.047943,398.211090 282.092377,395.208832 
	C282.207764,387.418030 282.193115,379.623901 282.109253,371.832397 
	C282.079407,369.061798 283.187714,368.050842 285.954590,368.032898 
	C288.897522,368.013855 290.244385,368.993011 290.067535,372.061554 
	C289.905640,374.870605 290.038116,377.696625 290.040955,381.012634 
z"/>
<path fill="#F7FADE" opacity="1.000000" stroke="none" 
	d="
M289.949249,281.586243 
	C282.063232,282.259491 282.063232,282.259491 282.045349,274.184326 
	C282.029480,267.016632 282.029480,267.016632 274.581543,266.906982 
	C274.239899,265.900330 274.327332,264.860504 274.568939,263.195587 
	C274.849060,262.043915 274.974976,261.517395 275.282898,261.278534 
	C276.511108,262.617279 277.557312,263.668335 278.603546,264.719391 
	C279.170807,263.686676 279.668304,262.606262 280.330261,261.638306 
	C280.761139,261.008179 281.431366,260.541718 281.994354,260.001923 
	C281.788727,263.820221 282.495941,266.630737 287.295746,266.989197 
	C291.263214,267.285492 289.533081,271.005951 290.269104,273.702759 
	C290.236389,276.470825 290.120605,278.809204 289.949249,281.586243 
z"/>
<path fill="#F8C4A2" opacity="1.000000" stroke="none" 
	d="
M212.101471,344.302917 
	C204.058182,345.181152 204.058182,345.181152 204.052490,337.371643 
	C204.389908,336.933319 204.717529,336.941498 205.045197,336.947235 
	C211.775162,337.065277 211.775162,337.065216 212.101471,344.302917 
z"/>
<path fill="#A76C62" opacity="1.000000" stroke="none" 
	d="
M259.298187,397.566284 
	C259.042847,385.938782 258.986481,373.959381 258.970215,361.519470 
	C259.338043,363.320465 259.954620,365.583374 259.943390,367.843140 
	C259.894684,377.634033 259.662567,387.424042 259.298187,397.566284 
z"/>
<path fill="#F5FBE4" opacity="1.000000" stroke="none" 
	d="
M282.338867,259.767456 
	C281.431366,260.541718 280.761139,261.008179 280.330261,261.638306 
	C279.668304,262.606262 279.170807,263.686676 278.603546,264.719391 
	C277.557312,263.668335 276.511108,262.617279 275.110901,261.231018 
	C274.756866,260.895782 274.400787,260.885834 274.400787,260.885834 
	C272.265411,259.884827 270.130005,258.883820 267.186646,257.504059 
	C267.186646,251.077469 267.186646,243.586639 267.186646,236.192688 
	C269.567596,235.426224 271.925232,234.667252 274.490143,233.285919 
	C274.609344,232.086914 274.521271,231.510254 274.433228,230.933594 
	C274.516785,229.798203 274.600342,228.662796 274.922821,227.286804 
	C275.161713,227.046188 275.562927,227.088654 275.562927,227.088654 
	C275.562927,227.088654 275.965393,227.065216 276.201324,227.211395 
	C277.310242,227.265915 278.183258,227.174225 279.378632,227.138824 
	C280.513428,227.477676 281.325867,227.760239 282.141479,228.487213 
	C281.237793,234.138321 283.471375,235.947647 288.592346,235.398544 
	C292.168457,235.015091 295.817291,235.311813 299.433655,235.302414 
	C305.781372,235.285934 305.781372,235.285202 305.826080,228.684204 
	C305.832031,228.293121 305.716339,228.118561 305.383270,227.922974 
	C305.252991,227.844315 304.991333,227.688873 304.894684,227.569641 
	C304.486664,227.296326 304.205750,227.337189 303.549561,227.585632 
	C301.525269,227.555374 299.906616,227.512512 298.205078,227.077728 
	C297.966217,224.808426 297.810272,222.931046 297.748840,220.746216 
	C297.902924,220.232742 297.962494,220.026718 298.022064,219.820679 
	C302.414185,219.826752 306.806274,219.832809 311.808075,219.888916 
	C312.630432,219.934540 312.790771,219.840637 312.898773,219.657272 
	C313.112061,217.498810 313.325348,215.340332 313.988647,212.655106 
	C320.890808,211.708221 320.890808,211.708221 321.188843,204.253769 
	C323.623199,204.253769 326.057587,204.253769 328.992767,204.253769 
	C328.992767,209.436066 328.992767,214.202667 328.493530,219.426392 
	C320.892029,220.011719 320.892029,220.011719 321.259430,228.077576 
	C321.259430,230.209396 321.259430,232.341217 321.259430,234.751556 
	C318.631378,235.139328 316.413727,235.466553 313.610901,235.880127 
	C313.610901,238.080719 313.610901,240.191223 313.762726,242.747833 
	C313.827240,247.129807 314.627197,251.584503 308.237488,251.295212 
	C307.504425,251.262039 306.027893,253.294205 306.010742,254.386276 
	C305.949371,258.287842 303.832672,258.994263 300.522858,259.004669 
	C294.575867,259.023407 288.629852,259.340515 282.338867,259.767456 
z"/>
<path fill="#FBBF9F" opacity="1.000000" stroke="none" 
	d="
M282.138275,228.042816 
	C281.325867,227.760239 280.513428,227.477676 279.149658,226.951660 
	C277.720642,226.827225 276.843018,226.946228 275.965393,227.065216 
	C275.965393,227.065216 275.562927,227.088654 275.562927,227.088654 
	C275.562927,227.088654 275.161713,227.046188 275.052673,226.971069 
	C273.910645,223.053070 273.122894,219.545502 279.217896,219.619019 
	C280.170166,219.630508 281.812500,217.142288 281.979614,215.677994 
	C282.288269,212.973801 283.212677,211.756363 285.967926,211.950851 
	C287.615875,212.067169 289.279449,211.960571 290.936005,211.957336 
	C297.843109,211.943878 297.843109,211.944321 298.012207,219.388367 
	C297.962494,220.026718 297.902924,220.232742 297.482086,220.899048 
	C296.406860,223.370422 295.692963,225.381500 294.526886,227.479889 
	C290.095886,227.725754 286.117096,227.884277 282.138275,228.042816 
z"/>
<path fill="#F5BD9F" opacity="1.000000" stroke="none" 
	d="
M320.739655,204.191589 
	C320.890808,211.708221 320.890808,211.708221 314.050720,212.199677 
	C313.601471,211.951096 313.511047,211.633713 313.483002,211.310913 
	C312.850189,204.035995 312.944672,203.937668 320.739655,204.191589 
z"/>
<path fill="#F8C4A2" opacity="1.000000" stroke="none" 
	d="
M321.672974,227.998871 
	C320.892029,220.011719 320.892029,220.011719 328.426514,219.881927 
	C329.305084,227.398682 329.305084,227.398682 321.672974,227.998871 
z"/>
<path fill="#FBBF9F" opacity="1.000000" stroke="none" 
	d="
M274.317139,261.242676 
	C274.400787,260.885834 274.756866,260.895782 274.928894,260.943298 
	C274.974976,261.517395 274.849060,262.043915 274.586487,262.802979 
	C274.377777,262.556824 274.305634,262.078156 274.317139,261.242676 
z"/>
<path fill="#F5BD9F" opacity="1.000000" stroke="none" 
	d="
M274.338531,231.281372 
	C274.521271,231.510254 274.609344,232.086914 274.569763,232.853302 
	C274.376007,232.571732 274.309937,232.100449 274.338531,231.281372 
z"/>
<path fill="#F5BD9F" opacity="1.000000" stroke="none" 
	d="
M312.761841,219.624985 
	C312.790771,219.840637 312.630432,219.934540 312.281677,219.896027 
	C312.263855,219.689667 312.423645,219.602859 312.761841,219.624985 
z"/>
<path fill="#F5FCE3" opacity="1.000000" stroke="none" 
	d="
M189.090012,133.827713 
	C188.497192,129.921310 188.380417,126.476990 193.969940,126.477638 
	C194.942383,126.477753 196.776917,124.702377 196.744446,123.799889 
	C196.564896,118.809082 199.610504,118.628693 203.644226,118.962234 
	C204.048080,126.259422 204.008194,133.543167 203.526428,141.274567 
	C201.060516,141.777603 199.036499,141.832977 197.012482,141.888367 
	C197.012482,141.888351 197.188507,141.759399 197.129059,141.423782 
	C196.798904,140.713150 196.528214,140.338135 196.234283,139.563477 
	C196.225723,138.096832 196.240417,137.029816 196.350586,135.874908 
	C196.560150,135.514496 196.505692,135.288239 196.163605,134.799240 
	C195.670349,134.272095 195.296158,134.053970 194.700745,133.702850 
	C193.651520,133.661392 192.823547,133.752930 191.631317,133.859802 
	C190.541382,133.859329 189.815689,133.843521 189.090012,133.827713 
z"/>
<path fill="#A76C62" opacity="1.000000" stroke="none" 
	d="
M197.324066,142.118103 
	C199.036499,141.832977 201.060516,141.777603 203.514282,141.726257 
	C203.948456,141.940323 203.952881,142.150375 203.928986,142.674255 
	C201.812332,142.774689 199.723999,142.561264 197.324066,142.118103 
z"/>
<path fill="#A76C62" opacity="1.000000" stroke="none" 
	d="
M194.921982,133.835846 
	C195.296158,134.053970 195.670349,134.272095 196.097397,135.009857 
	C196.150269,135.529495 196.255096,135.962799 196.255096,135.962799 
	C196.240417,137.029816 196.225723,138.096832 196.117737,139.823517 
	C195.978699,140.667786 195.932983,140.852386 195.887253,141.036972 
	C194.517319,138.385818 195.070709,133.422974 189.201233,135.906921 
	C188.851288,135.548920 188.848328,135.046875 188.967682,134.186279 
	C189.815689,133.843521 190.541382,133.859329 191.993088,133.944412 
	C193.453400,133.954422 194.187698,133.895142 194.921982,133.835846 
z"/>
<path fill="#F8C4A2" opacity="1.000000" stroke="none" 
	d="
M196.078125,141.181580 
	C195.932983,140.852386 195.978699,140.667786 196.140991,140.223145 
	C196.528214,140.338135 196.798904,140.713150 197.121307,141.314941 
	C197.173019,141.541733 196.695145,141.542465 196.695145,141.542465 
	C196.695145,141.542465 196.268997,141.326202 196.078125,141.181580 
z"/>
<path fill="#F5FCE3" opacity="1.000000" stroke="none" 
	d="
M235.021698,227.363678 
	C227.641556,227.793289 220.255280,227.784088 212.416077,227.915985 
	C211.978973,225.679581 211.994797,223.302078 212.501266,220.460297 
	C215.339066,219.904297 217.686218,219.812592 220.462860,219.785065 
	C222.914948,219.798355 224.937546,219.747437 227.343079,219.736145 
	C228.494003,219.747177 229.261993,219.718567 230.456482,219.759079 
	C232.327545,219.806534 233.772156,219.784866 235.216751,219.763184 
	C235.216751,219.763199 235.254959,219.760452 235.261200,219.777649 
	C235.183472,222.171524 235.099503,224.548187 235.021698,227.363678 
z"/>
<path fill="#FBC4A4" opacity="1.000000" stroke="none" 
	d="
M220.033371,219.720871 
	C217.686218,219.812592 215.339066,219.904297 212.554199,220.019012 
	C212.077423,218.886902 212.110336,217.723938 211.985672,216.578110 
	C211.621384,213.229782 212.868561,211.738937 216.431870,211.945648 
	C220.549911,212.184555 224.722275,212.296906 228.817780,211.906006 
	C233.747482,211.435501 236.059326,213.012787 234.837982,218.468735 
	C233.010696,219.083405 231.520340,219.386688 230.029999,219.689972 
	C229.261993,219.718567 228.494003,219.747177 227.168762,219.453812 
	C224.418808,219.328186 222.226089,219.524536 220.033371,219.720871 
z"/>
<path fill="#EDC3AB" opacity="1.000000" stroke="none" 
	d="
M230.456482,219.759094 
	C231.520340,219.386688 233.010696,219.083405 234.823914,218.916260 
	C235.146790,219.052383 235.253296,219.400787 235.235016,219.581985 
	C233.772156,219.784866 232.327545,219.806534 230.456482,219.759094 
z"/>
<path fill="#BB6C60" opacity="1.000000" stroke="none" 
	d="
M233.709366,231.991974 
	C227.401184,232.767365 221.169449,233.175690 214.931030,233.391190 
	C214.850433,233.393982 214.685059,230.941956 214.559265,229.635742 
	C220.852737,229.816803 227.146561,229.989059 233.437332,230.238144 
	C233.571198,230.243439 233.670074,231.133041 233.709366,231.991974 
z"/>
<path fill="#BB7064" opacity="1.000000" stroke="none" 
	d="
M282.141479,228.487213 
	C286.117096,227.884277 290.095886,227.725754 294.934326,227.575241 
	C296.625305,227.545395 297.456665,227.507523 298.287994,227.469666 
	C299.906616,227.512512 301.525269,227.555374 303.803009,227.660873 
	C304.638550,227.711960 304.814941,227.700424 304.991333,227.688873 
	C304.991333,227.688873 305.252991,227.844315 305.361053,228.079071 
	C305.506165,228.533142 305.613647,228.709549 305.791565,228.843094 
	C305.781372,235.285202 305.781372,235.285934 299.433655,235.302414 
	C295.817291,235.311813 292.168457,235.015091 288.592346,235.398544 
	C283.471375,235.947647 281.237793,234.138321 282.141479,228.487213 
z"/>
<path fill="#F5BD9F" opacity="1.000000" stroke="none" 
	d="
M298.205078,227.077728 
	C297.456665,227.507523 296.625305,227.545395 295.386536,227.487915 
	C295.692963,225.381500 296.406860,223.370422 297.387543,221.206512 
	C297.810272,222.931046 297.966217,224.808426 298.205078,227.077728 
z"/>
<path fill="#F5BD9F" opacity="1.000000" stroke="none" 
	d="
M276.201324,227.211411 
	C276.843018,226.946228 277.720642,226.827225 278.827271,226.895370 
	C278.183258,227.174225 277.310242,227.265915 276.201324,227.211411 
z"/>
<path fill="#F5BD9F" opacity="1.000000" stroke="none" 
	d="
M304.894684,227.569641 
	C304.814941,227.700424 304.638550,227.711960 304.208679,227.648254 
	C304.205750,227.337189 304.486664,227.296326 304.894684,227.569641 
z"/>
<path fill="#F5BD9F" opacity="1.000000" stroke="none" 
	d="
M305.826080,228.684204 
	C305.613647,228.709549 305.506165,228.533142 305.491333,228.157745 
	C305.716339,228.118561 305.832031,228.293121 305.826080,228.684204 
z"/>
<path fill="#FBBF9F" opacity="1.000000" stroke="none" 
	d="
M194.700745,133.702850 
	C194.187698,133.895142 193.453400,133.954422 192.357346,133.929077 
	C192.823547,133.752930 193.651520,133.661392 194.700745,133.702850 
z"/>
<path fill="#F8C4A2" opacity="1.000000" stroke="none" 
	d="
M196.350586,135.874908 
	C196.255096,135.962799 196.150269,135.529495 196.216476,135.318878 
	C196.505692,135.288239 196.560150,135.514496 196.350586,135.874908 
z"/>
<path fill="#EDC3AB" opacity="1.000000" stroke="none" 
	d="
M220.462860,219.785065 
	C222.226089,219.524536 224.418808,219.328186 226.785843,219.414185 
	C224.937546,219.747437 222.914948,219.798355 220.462860,219.785065 
z"/>
</svg>